<?xml version="1.0" encoding="UTF-8"?>
<svg id="_レイヤー_2" data-name="レイヤー 2" xmlns="http://www.w3.org/2000/svg" viewBox="0 0 140.24 29.4">
  <defs>
    <style>
      .cls-1 {
        fill: #7c3aed;
      }
    </style>
  </defs>
  <g id="_レイヤー_1-2" data-name="レイヤー 1">
    <g>
      <path class="cls-1" d="M0,29.4V1.8h4.88v11.08h11.64V1.8h4.88v27.6h-4.88v-12.08H4.88v12.08H0Z"/>
      <path class="cls-1" d="M27.68,4.76V0h4.92v4.76h-4.92ZM27.8,29.4V8.4h4.68v21h-4.68Z"/>
      <path class="cls-1" d="M38.48,29.4V8.4h11.52c4.19,0,6.28,2.11,6.28,6.32v14.68h-4.68v-15.08c0-1.23-.61-1.84-1.84-1.84h-6.6v16.92h-4.68Z"/>
      <path class="cls-1" d="M61.96,23.08V1.8h4.68v6.6h7.16v4.08h-7.16v11c0,1.23.61,1.84,1.84,1.84h5.72v2.52l-2.12,1.56h-3.8c-4.21,0-6.32-2.11-6.32-6.32Z"/>
      <path class="cls-1" d="M79.04,29.4V1.8h12.88c4.35,0,6.52,2.17,6.52,6.52v2.52c0,.91-.27,1.68-.8,2.32l-1.4,1.68,1.68,1.4c.88.72,1.32,1.79,1.32,3.2v3.44c0,4.35-2.17,6.52-6.52,6.52h-13.68ZM83.92,12.88h7.88c1.17,0,1.76-.59,1.76-1.76v-3.16c0-1.15-.59-1.72-1.76-1.72h-7.88v6.64ZM83.92,24.96h8.68c1.17,0,1.76-.57,1.76-1.72v-4.2c0-1.15-.59-1.72-1.76-1.72h-8.68v7.64Z"/>
      <path class="cls-1" d="M104.28,23.08v-8.36c0-4.21,2.11-6.32,6.32-6.32h5.6c4.19,0,6.28,2.11,6.28,6.32v8.36c0,4.21-2.09,6.32-6.28,6.32h-5.6c-4.21,0-6.32-2.11-6.32-6.32ZM108.96,23.48c0,1.23.61,1.84,1.84,1.84h5.16c1.23,0,1.84-.61,1.84-1.84v-9.16c0-1.23-.61-1.84-1.84-1.84h-5.16c-1.23,0-1.84.61-1.84,1.84v9.16Z"/>
      <path class="cls-1" d="M128,23.08V1.8h4.68v6.6h7.16v4.08h-7.16v11c0,1.23.61,1.84,1.84,1.84h5.72v2.52l-2.12,1.56h-3.8c-4.21,0-6.32-2.11-6.32-6.32Z"/>
    </g>
  </g>
</svg>